<svg width="57" height="57" viewBox="0 0 57 57" fill="none" xmlns="http://www.w3.org/2000/svg">
<g clip-path="url(#clip0_19_1391)">
<g clip-path="url(#clip1_19_1391)">
<path d="M45.1849 0.0483398H12.5182C6.07491 0.0483398 0.851562 5.27168 0.851562 11.715V44.3817C0.851562 50.825 6.07491 56.0483 12.5182 56.0483H45.1849C51.6282 56.0483 56.8516 50.825 56.8516 44.3817V11.715C56.8516 5.27168 51.6282 0.0483398 45.1849 0.0483398Z" fill="#FF6F0F" fill-opacity="0.141176"/>
<path d="M35.502 28.209C32.8916 28.209 30.5291 29.3319 28.8374 31.1257C27.1312 29.3319 24.7833 28.209 22.1729 28.209C17.3604 28.209 13.3791 32.0152 12.8541 36.9152C12.7812 37.5569 13.1166 38.184 13.7145 38.4465C17.7687 40.1819 23.0479 41.2465 28.8374 41.2465C34.627 41.2465 39.9062 40.1819 43.9604 38.4465C44.5583 38.1986 44.8791 37.5569 44.8208 36.9152C44.2958 32.0152 40.3291 28.209 35.502 28.209Z" fill="#FF6F0F"/>
<path d="M21.602 26.7945C24.872 26.7945 27.5228 24.1436 27.5228 20.8737C27.5228 17.6037 24.872 14.9529 21.602 14.9529C18.3321 14.9529 15.6812 17.6037 15.6812 20.8737C15.6812 24.1436 18.3321 26.7945 21.602 26.7945Z" fill="#FF6F0F"/>
<path d="M36.0551 26.7945C39.3252 26.7945 41.9759 24.1436 41.9759 20.8737C41.9759 17.6037 39.3252 14.9529 36.0551 14.9529C32.7852 14.9529 30.1343 17.6037 30.1343 20.8737C30.1343 24.1436 32.7852 26.7945 36.0551 26.7945Z" fill="#FF6F0F"/>
</g>
</g>
<defs>
<clipPath id="clip0_19_1391">
<rect width="56" height="56" fill="white" transform="translate(0.851562 0.0483398)"/>
</clipPath>
<clipPath id="clip1_19_1391">
<rect width="56" height="56" fill="white" transform="translate(0.851562 0.0483398)"/>
</clipPath>
</defs>
</svg>