<svg width="57" height="57" viewBox="0 0 57 57" fill="none" xmlns="http://www.w3.org/2000/svg">
<g clip-path="url(#clip0_19_1405)">
<g clip-path="url(#clip1_19_1405)">
<path d="M45.1849 0.0483398H12.5182C6.07491 0.0483398 0.851562 5.27168 0.851562 11.715V44.3817C0.851562 50.825 6.07491 56.0483 12.5182 56.0483H45.1849C51.6282 56.0483 56.8516 50.825 56.8516 44.3817V11.715C56.8516 5.27168 51.6282 0.0483398 45.1849 0.0483398Z" fill="#FF6F0F" fill-opacity="0.141176"/>
<path d="M41.3785 35.5437C42.6764 33.3562 43.4493 30.8187 43.4493 28.0916C43.4493 20.0416 36.916 13.5083 28.866 13.5083C20.816 13.5083 14.2681 20.0271 14.2681 28.0916C14.2681 36.1562 20.8014 42.675 28.8514 42.675C31.5785 42.675 34.116 41.9166 36.3035 40.6041L40.7806 41.8C41.8597 42.0916 42.8514 41.1 42.5597 40.0208L41.3639 35.5437H41.3785ZM35.9827 35.0625C35.7493 35.2958 35.4577 35.3979 35.1514 35.3979C34.8452 35.3979 34.5535 35.2812 34.3202 35.0625L33.2993 34.0416C32.0452 34.975 30.5139 35.5583 28.8514 35.5583C24.7389 35.5583 21.3847 32.2041 21.3847 28.0916C21.3847 23.9791 24.7389 20.625 28.8514 20.625C32.9639 20.625 36.3181 23.9791 36.3181 28.0916C36.3181 29.6958 35.8077 31.1687 34.9472 32.3791L35.9827 33.4146C36.4347 33.8666 36.4347 34.6104 35.9827 35.0625Z" fill="#FF6F0F"/>
<path d="M30.2244 29.3027C30.6765 28.8507 31.4202 28.8507 31.8723 29.3027L33.2577 30.6882C33.7098 29.9298 33.9869 29.0402 33.9869 28.0923C33.9869 25.2632 31.6827 22.959 28.8535 22.959C26.0244 22.959 23.7202 25.2632 23.7202 28.0923C23.7202 30.9215 26.0244 33.2257 28.8535 33.2257C29.889 33.2257 30.8369 32.9194 31.6535 32.3944L30.2244 30.9652C29.7723 30.5132 29.7723 29.7694 30.2244 29.3173V29.3027Z" fill="#FF6F0F"/>
</g>
</g>
<defs>
<clipPath id="clip0_19_1405">
<rect width="56" height="56" fill="white" transform="translate(0.851562 0.0483398)"/>
</clipPath>
<clipPath id="clip1_19_1405">
<rect width="56" height="56" fill="white" transform="translate(0.851562 0.0483398)"/>
</clipPath>
</defs>
</svg>
