<svg width="57" height="57" viewBox="0 0 57 57" fill="none" xmlns="http://www.w3.org/2000/svg">
<g clip-path="url(#clip0_19_1417)">
<g clip-path="url(#clip1_19_1417)">
<path d="M45.1849 0.0483398H12.5182C6.07491 0.0483398 0.851562 5.27168 0.851562 11.715V44.3817C0.851562 50.825 6.07491 56.0483 12.5182 56.0483H45.1849C51.6282 56.0483 56.8516 50.825 56.8516 44.3817V11.715C56.8516 5.27168 51.6282 0.0483398 45.1849 0.0483398Z" fill="#FF6F0F" fill-opacity="0.141176"/>
<path d="M40.5327 19.3422H35.4285C35.4139 15.7401 32.4827 12.8088 28.866 12.8088C25.2493 12.8088 22.3327 15.7401 22.3035 19.3422H17.1847C15.5806 19.3422 14.2681 20.6547 14.2681 22.2588V39.7588C14.2681 41.363 15.5806 42.6755 17.1847 42.6755H40.5327C42.1368 42.6755 43.4493 41.363 43.4493 39.7588V22.2588C43.4493 20.6547 42.1368 19.3422 40.5327 19.3422ZM28.866 15.7255C30.8639 15.7255 32.4972 17.3443 32.5118 19.3422H25.2202C25.2347 17.3443 26.8681 15.7255 28.866 15.7255ZM28.9972 38.4318C28.1952 38.4318 27.5389 37.7755 27.5389 36.9734C27.5389 36.1713 28.1952 35.5151 28.9972 35.5151C29.7993 35.5151 30.4556 36.1713 30.4556 36.9734C30.4556 37.7755 29.7993 38.4318 28.9972 38.4318ZM33.2556 28.9088C32.891 30.4838 31.7972 31.2713 30.9952 31.8255C30.1785 32.4088 29.9743 32.613 29.9743 33.0797C29.9743 33.7213 29.4493 34.2463 28.8077 34.2463C28.166 34.2463 27.641 33.7213 27.641 33.0797C27.641 31.3443 28.7931 30.5276 29.6389 29.9297C30.3681 29.4193 30.8202 29.0693 30.9806 28.3838C31.0972 27.8588 31.0097 27.3922 30.6889 26.9984C30.2806 26.4734 29.5368 26.138 28.8077 26.138C27.6847 26.138 26.7514 27.013 26.6639 28.1359C26.6202 28.7776 26.0806 29.288 25.4243 29.2151C24.7827 29.1713 24.3014 28.6172 24.3452 27.9755C24.5056 25.6422 26.4743 23.8193 28.8077 23.8193C30.2514 23.8193 31.666 24.4901 32.5118 25.5547C33.2702 26.5026 33.5327 27.6984 33.241 28.9234L33.2556 28.9088Z" fill="#FF6F0F"/>
</g>
</g>
<defs>
<clipPath id="clip0_19_1417">
<rect width="56" height="56" fill="white" transform="translate(0.851562 0.0483398)"/>
</clipPath>
<clipPath id="clip1_19_1417">
<rect width="56" height="56" fill="white" transform="translate(0.851562 0.0483398)"/>
</clipPath>
</defs>
</svg>
